<svg width="32" height="32" viewBox="0 0 32 32" fill="currentColor" xmlns="http://www.w3.org/2000/svg">
  <path d="M23.64 16.69c-.04-2.27 1.06-4 3.24-5.32-1.21-1.74-2.99-2.71-5.14-2.83-2.16-.13-4.52 1.31-5.36 1.31-.86 0-2.82-1.26-4.36-1.22-2.24.03-4.3 1.3-5.46 3.29-2.34 4.09-.6 10.16 1.68 13.49 1.12 1.62 2.45 3.44 4.2 3.38 1.68-.07 2.31-1.09 4.34-1.09 2.01 0 2.56 1.09 4.34 1.05 1.79-.03 2.92-1.64 4.02-3.28a13.86 13.86 0 001.8-3.68c-1.91-.86-3.05-2.55-3.1-4.1z"/>
  <path d="M19.46 6.96c1.79-2.17 1.62-4.14 1.57-4.66-1.53.09-3.3 1.04-4.34 2.31-1.1 1.27-2.03 3.11-1.87 4.94 1.79.14 3.62-.91 4.64-2.59z"/>
</svg>
