<svg width="32" height="32" viewBox="0 0 32 32" fill="none" xmlns="http://www.w3.org/2000/svg">
  <path d="M28.3 16.36c0-.64-.06-1.33-.17-1.97H16v3.74h6.93c-.27 1.5-1.16 2.76-2.45 3.58v2.94h3.95c2.3-2.12 3.87-5.24 3.87-8.29z" fill="#4285F4"/>
  <path d="M16 29c2.62 0 4.82-.86 6.42-2.35l-3.95-2.94c-1.1.73-2.51 1.17-4.1 1.17-3.15 0-5.82-2.14-6.77-5.01H3.55v3.1C5.14 26.7 10.16 29 16 29z" fill="#34A853"/>
  <path d="M9.23 19.87A7.3 7.3 0 018.85 17c0-.99.17-1.87.38-2.87V11.03H3.55A13.22 13.22 0 003 17c0 1.97.44 3.82 1.22 5.44l4.99-2.57z" fill="#FBBC05"/>
  <path d="M16 9.7c1.84 0 3.49.63 4.8 1.86l3.6-3.53C20.8 5.35 18.62 4.5 16 4.5c-5.84 0-10.86 2.3-12.45 6.7l5.68 4.1C10.18 11.83 12.85 9.7 16 9.7z" fill="#EA4335"/>
</svg>
